HIERARCHY
ROOT Hips
{
  OFFSET -0.646915 101.797 0.792983
  CHANNELS 6 Xposition Yposition Zposition Zrotation Xrotation Yrotation
  JOINT Spine
  {
    OFFSET 0 10.1816 0.1315
    CHANNELS 6 Xposition Yposition Zposition Zrotation Xrotation Yrotation
    JOINT Spine1
    {
      OFFSET 0 10.0835 -1.0008
      CHANNELS 6 Xposition Yposition Zposition Zrotation Xrotation Yrotation
      JOINT Spine2
      {
        OFFSET 0 9.1 -1.3734
        CHANNELS 6 Xposition Yposition Zposition Zrotation Xrotation Yrotation
        JOINT Neck
        {
          OFFSET 0 16.6717 -2.5162
          CHANNELS 6 Xposition Yposition Zposition Zrotation Xrotation Yrotation
          JOINT Head
          {
            OFFSET 0 9.6179 1.685
            CHANNELS 6 Xposition Yposition Zposition Zrotation Xrotation Yrotation
            JOINT HeadTop_End
            {
              OFFSET 0 17.8152 2.585
              CHANNELS 6 Xposition Yposition Zposition Zrotation Xrotation Yrotation
              End Site
              {
                OFFSET 0 0 0
              }
            }
            JOINT LeftEye
            {
              OFFSET 3.0676 6.4095 9.2836
              CHANNELS 6 Xposition Yposition Zposition Zrotation Xrotation Yrotation
              End Site
              {
                OFFSET 0 0 0
              }
            }
            JOINT RightEye
            {
              OFFSET -3.0676 6.4095 9.2835
              CHANNELS 6 Xposition Yposition Zposition Zrotation Xrotation Yrotation
              End Site
              {
                OFFSET 0 0 0
              }
            }
          }
        }
        JOINT LeftShoulder
        {
          OFFSET 4.5704 10.946 -2.628
          CHANNELS 6 Xposition Yposition Zposition Zrotation Xrotation Yrotation
          JOINT LeftArm
          {
            OFFSET 10.5924 -0.5246 -2.2321
            CHANNELS 6 Xposition Yposition Zposition Zrotation Xrotation Yrotation
            JOINT LeftForeArm
            {
              OFFSET 27.8415 -0.0001 0
              CHANNELS 6 Xposition Yposition Zposition Zrotation Xrotation Yrotation
              JOINT LeftHand
              {
                OFFSET 28.3288 0 0
                CHANNELS 6 Xposition Yposition Zposition Zrotation Xrotation Yrotation
                JOINT LeftHandThumb1
                {
                  OFFSET 2.4661 -1.575 2.6824
                  CHANNELS 6 Xposition Yposition Zposition Zrotation Xrotation Yrotation
                  JOINT LeftHandThumb2
                  {
                    OFFSET 3.2298 -1.8647 1.8647
                    CHANNELS 6 Xposition Yposition Zposition Zrotation Xrotation Yrotation
                    JOINT LeftHandThumb3
                    {
                      OFFSET 2.6526 -1.5315 1.5315
                      CHANNELS 6 Xposition Yposition Zposition Zrotation Xrotation Yrotation
                      End Site
                      {
                        OFFSET 1.9546 -1.1285 1.1285
                      }
                    }
                  }
                }
                JOINT LeftHandIndex1
                {
                  OFFSET 9.1093 -0.5171 2.2601
                  CHANNELS 6 Xposition Yposition Zposition Zrotation Xrotation Yrotation
                  JOINT LeftHandIndex2
                  {
                    OFFSET 3.6764 0 0
                    CHANNELS 6 Xposition Yposition Zposition Zrotation Xrotation Yrotation
                    JOINT LeftHandIndex3
                    {
                      OFFSET 2.8831 0 0
                      CHANNELS 6 Xposition Yposition Zposition Zrotation Xrotation Yrotation
                      End Site
                      {
                        OFFSET 2.3927 0 0
                      }
                    }
                  }
                }
                JOINT LeftHandMiddle1
                {
                  OFFSET 9.5334 0 0
                  CHANNELS 6 Xposition Yposition Zposition Zrotation Xrotation Yrotation
                  JOINT LeftHandMiddle2
                  {
                    OFFSET 3.6982 0 0
                    CHANNELS 6 Xposition Yposition Zposition Zrotation Xrotation Yrotation
                    JOINT LeftHandMiddle3
                    {
                      OFFSET 2.9509 0 0
                      CHANNELS 6 Xposition Yposition Zposition Zrotation Xrotation Yrotation
                      End Site
                      {
                        OFFSET 2.8339 0 0
                      }
                    }
                  }
                }
                JOINT LeftHandRing1
                {
                  OFFSET 9.1045 -0.0439 -1.8651
                  CHANNELS 6 Xposition Yposition Zposition Zrotation Xrotation Yrotation
                  JOINT LeftHandRing2
                  {
                    OFFSET 3.154 0 0
                    CHANNELS 6 Xposition Yposition Zposition Zrotation Xrotation Yrotation
                    JOINT LeftHandRing3
                    {
                      OFFSET 2.9377 0 0
                      CHANNELS 6 Xposition Yposition Zposition Zrotation Xrotation Yrotation
                      End Site
                      {
                        OFFSET 2.6475 0 0
                      }
                    }
                  }
                }
                JOINT LeftHandPinky1
                {
                  OFFSET 8.0778 -0.4887 -3.8061
                  CHANNELS 6 Xposition Yposition Zposition Zrotation Xrotation Yrotation
                  JOINT LeftHandPinky2
                  {
                    OFFSET 3.6 0 0
                    CHANNELS 6 Xposition Yposition Zposition Zrotation Xrotation Yrotation
                    JOINT LeftHandPinky3
                    {
                      OFFSET 2.1142 0 0
                      CHANNELS 6 Xposition Yposition Zposition Zrotation Xrotation Yrotation
                      End Site
                      {
                        OFFSET 1.9757 0 0
                      }
                    }
                  }
                }
              }
            }
          }
        }
        JOINT RightShoulder
        {
          OFFSET -4.57 10.9462 -2.628
          CHANNELS 6 Xposition Yposition Zposition Zrotation Xrotation Yrotation
          JOINT RightArm
          {
            OFFSET -10.5928 -0.5248 -2.2321
            CHANNELS 6 Xposition Yposition Zposition Zrotation Xrotation Yrotation
            JOINT RightForeArm
            {
              OFFSET -27.8415 0 0
              CHANNELS 6 Xposition Yposition Zposition Zrotation Xrotation Yrotation
              JOINT RightHand
              {
                OFFSET -28.3288 0 0.0001
                CHANNELS 6 Xposition Yposition Zposition Zrotation Xrotation Yrotation
                JOINT RightHandPinky1
                {
                  OFFSET -8.0767 -0.4885 -3.806
                  CHANNELS 6 Xposition Yposition Zposition Zrotation Xrotation Yrotation
                  JOINT RightHandPinky2
                  {
                    OFFSET -3.6 0 0.0001
                    CHANNELS 6 Xposition Yposition Zposition Zrotation Xrotation Yrotation
                    JOINT RightHandPinky3
                    {
                      OFFSET -2.1142 0 0
                      CHANNELS 6 Xposition Yposition Zposition Zrotation Xrotation Yrotation
                      End Site
                      {
                        OFFSET -1.9757 0 0
                      }
                    }
                  }
                }
                JOINT RightHandRing1
                {
                  OFFSET -9.1036 -0.0439 -1.8651
                  CHANNELS 6 Xposition Yposition Zposition Zrotation Xrotation Yrotation
                  JOINT RightHandRing2
                  {
                    OFFSET -3.154 0 0
                    CHANNELS 6 Xposition Yposition Zposition Zrotation Xrotation Yrotation
                    JOINT RightHandRing3
                    {
                      OFFSET -2.9377 0 0
                      CHANNELS 6 Xposition Yposition Zposition Zrotation Xrotation Yrotation
                      End Site
                      {
                        OFFSET -2.6475 0 0
                      }
                    }
                  }
                }
                JOINT RightHandMiddle1
                {
                  OFFSET -9.5325 0 0
                  CHANNELS 6 Xposition Yposition Zposition Zrotation Xrotation Yrotation
                  JOINT RightHandMiddle2
                  {
                    OFFSET -3.6982 0 0
                    CHANNELS 6 Xposition Yposition Zposition Zrotation Xrotation Yrotation
                    JOINT RightHandMiddle3
                    {
                      OFFSET -2.9509 0 0
                      CHANNELS 6 Xposition Yposition Zposition Zrotation Xrotation Yrotation
                      End Site
                      {
                        OFFSET -2.8339 0 0.0001
                      }
                    }
                  }
                }
                JOINT RightHandIndex1
                {
                  OFFSET -9.1083 -0.5168 2.2601
                  CHANNELS 6 Xposition Yposition Zposition Zrotation Xrotation Yrotation
                  JOINT RightHandIndex2
                  {
                    OFFSET -3.6764 0 0
                    CHANNELS 6 Xposition Yposition Zposition Zrotation Xrotation Yrotation
                    JOINT RightHandIndex3
                    {
                      OFFSET -2.8831 0 0
                      CHANNELS 6 Xposition Yposition Zposition Zrotation Xrotation Yrotation
                      End Site
                      {
                        OFFSET -2.3927 0 0
                      }
                    }
                  }
                }
                JOINT RightHandThumb1
                {
                  OFFSET -2.4648 -1.5727 2.6826
                  CHANNELS 6 Xposition Yposition Zposition Zrotation Xrotation Yrotation
                  JOINT RightHandThumb2
                  {
                    OFFSET -3.2298 -1.8647 1.8647
                    CHANNELS 6 Xposition Yposition Zposition Zrotation Xrotation Yrotation
                    JOINT RightHandThumb3
                    {
                      OFFSET -2.6526 -1.5314 1.5314
                      CHANNELS 6 Xposition Yposition Zposition Zrotation Xrotation Yrotation
                      End Site
                      {
                        OFFSET -1.9546 -1.1285 1.1285
                      }
                    }
                  }
                }
              }
            }
          }
        }
      }
    }
  }
  JOINT LeftUpLeg
  {
    OFFSET 8.2078 -6.7517 -1.5996
    CHANNELS 6 Xposition Yposition Zposition Zrotation Xrotation Yrotation
    JOINT LeftLeg
    {
      OFFSET 0 -44.3705 0.2846
      CHANNELS 6 Xposition Yposition Zposition Zrotation Xrotation Yrotation
      JOINT LeftFoot
      {
        OFFSET 0 -44.4279 -2.9822
        CHANNELS 6 Xposition Yposition Zposition Zrotation Xrotation Yrotation
        JOINT LeftToeBase
        {
          OFFSET 0 -8.7287 10.7106
          CHANNELS 6 Xposition Yposition Zposition Zrotation Xrotation Yrotation
          End Site
          {
            OFFSET 0 -0.0007 9.2781
          }
        }
      }
    }
  }
  JOINT RightUpLeg
  {
    OFFSET -8.2078 -6.7517 -1.5996
    CHANNELS 6 Xposition Yposition Zposition Zrotation Xrotation Yrotation
    JOINT RightLeg
    {
      OFFSET 0 -44.3705 0.2862
      CHANNELS 6 Xposition Yposition Zposition Zrotation Xrotation Yrotation
      JOINT RightFoot
      {
        OFFSET 0 -44.4277 -2.9838
        CHANNELS 6 Xposition Yposition Zposition Zrotation Xrotation Yrotation
        JOINT RightToeBase
        {
          OFFSET 0 -8.7287 10.7106
          CHANNELS 6 Xposition Yposition Zposition Zrotation Xrotation Yrotation
          End Site
          {
            OFFSET 0 -0.0007 9.2781
          }
        }
      }
    }
  }
}
MOTION
Frames:	4
Frame Time:	0.0333333
-2.50345 101.059 -9.08648 11.024 6.72503 -15.0549 0 10.1816 0.1315 2.22388 4.22347 -0.345873 0 10.0835 -1.0008 5.97527 8.41327 -0.950242 0 9.1 -1.3734 5.97987 8.42108 -0.966711 -7.10543e-015 16.6717 -2.5162 5.48752 -4.51215 3.11926 7.10543e-015 9.6179 1.685 -18.7625 -14.0359 6.57881 0 17.8152 2.585 1.2921e-015 1.59028e-015 -1.59028e-015 3.0676 6.4095 9.2836 1.2921e-015 1.59028e-015 -1.59028e-015 -3.0676 6.4095 9.2835 1.2921e-015 1.59028e-015 -1.59028e-015 4.5704 10.946 -2.628 24.8293 -2.57078 -23.2947 10.5924 -0.5246 -2.2321 -87.685 20.2086 24.6752 27.8415 -0.0001 2.84217e-014 -6.77798 -7.64101 -71.4291 28.3288 0 0 6.39374 -8.59018 -3.69143 2.4661 -1.575 2.6824 -23.7834 -44.695 10.8774 3.2298 -1.8647 1.8647 15.9057 -4.27999 2.78958 2.6526 -1.5315 1.5315 -6.66399e-005 -6.87711e-006 -6.9295e-005 9.1093 -0.5171 2.2601 6.28951 3.60706 3.5234 3.6764 -1.42109e-014 0 -22.7371 -1.14243 5.7848 2.8831 0 -7.10543e-015 7.95139e-016 -3.24794e-006 -2.48481e-016 9.5334 0 0 -2.22337 -0.232005 4.09936 3.6982 0 3.55271e-015 -19.2682 -0.520714 4.57367 2.9509 0 -7.10543e-015 -5.83712e-006 -7.45471e-006 -8.41955e-006 9.1045 -0.0439 -1.8651 -19.554 -3.95799 5.15305 3.154 0 0 -20.8005 -0.664724 4.88872 2.9377 2.66454e-015 7.10543e-015 6.46941e-006 1.47773e-006 5.84515e-006 8.0778 -0.4887 -3.8061 -32.2876 -4.27238 7.25556 3.6 -3.55271e-015 -7.10543e-015 -7.78812 0.392223 -0.216424 2.1142 -1.77636e-015 7.10543e-015 2.60199e-007 -8.48365e-007 -2.96928e-006 -4.57 10.9462 -2.628 -17.8595 0.956811 16.9955 -10.5928 -0.5248 -2.2321 67.5844 -39.0096 57.7826 -27.8415 1.42109e-014 0 -55.9435 8.20747 85.0055 -28.3288 0 0.0001 -33.8732 -13.8056 19.1209 -8.0767 -0.4885 -3.806 3.37151 -19.2282 -11.4566 -3.6 1.42109e-014 0.0001 8.77035 1.07423 0.0657357 -2.1142 0 -3.55271e-015 5.66514e-007 5.92127e-006 4.20066e-006 -9.1036 -0.0439 -1.8651 0.296207 -13.8343 -6.96664 -3.154 -7.10543e-015 0 14.9364 1.22227 -4.33302 -2.9377 -2.84217e-014 7.10543e-015 -5.1127e-006 -2.32136e-006 -1.61123e-006 -9.5325 0 7.10543e-015 -1.11372 -7.34693 -4.67212 -3.6982 0 0 13.3317 1.10581 -4.2564 -2.9509 -1.42109e-014 0 -4.23713e-006 -8.29741e-006 -0.00202146 -9.1083 -0.5168 2.2601 -7.19828 -1.9915 -4.97271 -3.6764 0 -7.10543e-015 14.6205 0.421919 -4.88585 -2.8831 -1.42109e-014 0 -1.47171e-005 -4.97031e-006 9.04908e-007 -2.4648 -1.5727 2.6826 7.8878 -29.6202 -9.67532 -3.2298 -1.8647 1.8647 -4.85771 1.16274 -8.82446 -2.6526 -1.5314 1.5314 -0.00122482 -1.97835e-006 -0.00122399 8.2078 -6.7517 -1.5996 -8.87036 -22.8404 17.7614 2.22045e-016 -44.3705 0.2846 -0.116518 14.9237 0.0856037 -3.33067e-016 -44.4279 -2.9822 4.10764 -2.13375 6.89647 2.22045e-016 -8.7287 10.7106 1.34205e-006 -6.99927e-005 8.3973e-007 -8.2078 -6.7517 -1.5996 -21.2722 -30.758 -17.9857 0 -44.3705 0.2862 0.300537 24.9977 0.160724 0 -44.4277 -2.9838 2.31515 -0.969823 -4.77035 -3.55271e-015 -8.7287 10.7106 4.66628e-005 -3.42506e-005 8.59199e-006 
-2.54162 101.081 -9.40132 11.0342 7.04042 -14.9903 1.77636e-015 10.1816 0.1315 2.31144 4.27297 -0.330567 1.77636e-015 10.0835 -1.0008 6.09791 8.51012 -0.9347 -3.55271e-015 9.1 -1.3734 6.10314 8.51831 -0.95226 0 16.6717 -2.5162 5.67875 -4.66877 2.96956 0 9.6179 1.685 -18.9244 -14.2525 6.4692 0 17.8152 2.585 -7.95139e-016 -1.59028e-015 -0 3.0676 6.4095 9.2836 -7.95139e-016 -1.59028e-015 -0 -3.0676 6.4095 9.2835 -7.95139e-016 -1.59028e-015 -0 4.5704 10.946 -2.628 24.8832 -2.70974 -23.5278 10.5924 -0.5246 -2.2321 -88.0394 20.9852 25.1599 27.8415 -0.0001 2.84217e-014 -6.64947 -7.83387 -72.7126 28.3288 0 0 4.77957 -8.50821 -4.17584 2.4661 -1.575 2.6824 -21.1893 -42.8108 11.7982 3.2298 -1.8647 1.8647 15.0462 -2.78867 4.37043 2.6526 -1.5315 1.5315 -6.66399e-005 -6.87711e-006 -6.9295e-005 9.1093 -0.5171 2.2601 4.8619 2.81974 3.63568 3.6764 0 0 -21.686 -0.936153 5.6587 2.8831 0 7.10543e-015 5.96354e-016 -3.24794e-006 -2.88238e-015 9.5334 0 -3.55271e-015 -2.96287 -1.18934 4.23178 3.6982 -1.42109e-014 -3.55271e-015 -19.3481 -0.371007 4.62852 2.9509 0 -7.10543e-015 -5.83712e-006 -7.45471e-006 -8.41955e-006 9.1045 -0.0439 -1.8651 -19.7953 -5.35106 5.12366 3.154 0 -3.55271e-015 -20.6995 -0.491293 4.91928 2.9377 3.55271e-015 0 6.46941e-006 1.47773e-006 5.84515e-006 8.0778 -0.4887 -3.8061 -32.4618 -4.98867 7.06371 3.6 -6.66134e-015 0 -7.79155 0.467351 -0.189344 2.1142 0 7.10543e-015 2.60199e-007 -8.48365e-007 -2.96928e-006 -4.57 10.9462 -2.628 -17.9581 1.01075 16.5451 -10.5928 -0.5248 -2.2321 71.5173 -41.2639 59.1803 -27.8415 1.42109e-014 0 -40.4375 10.495 87.1593 -28.3288 0 0.0001 -32.6303 -12.1485 19.3359 -8.0767 -0.4885 -3.806 3.37151 -19.2282 -11.4566 -3.6 -1.42109e-014 0.0001 8.77034 1.07358 0.0657359 -2.1142 0 3.55271e-015 5.66514e-007 5.92127e-006 4.20066e-006 -9.1036 -0.0439 -1.8651 0.296197 -13.8342 -6.96662 -3.154 0 7.10543e-015 14.9364 1.22226 -4.33301 -2.9377 1.42109e-014 -3.55271e-015 -5.1127e-006 -2.32136e-006 -1.61123e-006 -9.5325 1.42109e-014 -7.10543e-015 -1.11373 -7.34693 -4.67211 -3.6982 0 0 13.3317 1.10632 -4.25742 -2.9509 0 -3.55271e-015 -4.23713e-006 -8.29741e-006 -0.00202146 -9.1083 -0.5168 2.2601 -7.1983 -1.99149 -4.97272 -3.6764 -3.55271e-015 -3.55271e-015 14.6205 0.421925 -4.88591 -2.8831 0 -1.77636e-015 -1.47171e-005 -4.97031e-006 9.04908e-007 -2.4648 -1.5727 2.6826 7.88778 -29.6202 -9.67532 -3.2298 -1.8647 1.8647 -4.85769 1.16276 -8.82448 -2.6526 -1.5314 1.5314 -0.00122482 -1.97835e-006 -0.00122399 8.2078 -6.7517 -1.5996 -8.81483 -23.1599 17.7229 5.55112e-016 -44.3705 0.2846 -0.11029 14.517 0.0886145 -3.33067e-016 -44.4279 -2.9822 4.09577 -1.68244 6.78591 4.44089e-016 -8.7287 10.7106 1.34205e-006 -6.99927e-005 8.3973e-007 -8.2078 -6.7517 -1.5996 -21.1921 -31.0456 -18.3027 3.55271e-015 -44.3705 0.2862 0.297487 24.6281 0.161704 3.55271e-015 -44.4277 -2.9838 2.15551 -0.600381 -4.66911 0 -8.7287 10.7106 7.17287e-005 -3.07866e-005 -2.8639e-006 
-2.53496 101.104 -9.63883 10.9837 7.27995 -14.8456 0 10.1816 0.1315 2.35928 4.28666 -0.365087 1.77636e-015 10.0835 -1.0008 6.24335 8.53351 -0.988571 7.10543e-015 9.1 -1.3734 6.24757 8.54186 -1.00564 0 16.6717 -2.5162 5.70963 -4.93661 2.9238 0 9.6179 1.685 -18.9779 -14.1589 6.43636 5.32907e-015 17.8152 2.585 3.97569e-016 -1.59028e-015 -0 3.0676 6.4095 9.2836 3.97569e-016 -1.59028e-015 -0 -3.0676 6.4095 9.2835 3.97569e-016 -1.59028e-015 -0 4.5704 10.946 -2.628 24.9254 -2.77834 -23.5789 10.5924 -0.5246 -2.2321 -88.6753 21.472 25.3927 27.8415 -0.0001 2.84217e-014 -7.01004 -8.13251 -73.4241 28.3288 0 -7.10543e-015 4.45954 -8.49957 -4.40822 2.4661 -1.575 2.6824 -18.5247 -40.7028 12.6797 3.2298 -1.8647 1.8647 14.069 -1.24643 6.1424 2.6526 -1.5315 1.5315 -6.66399e-005 -6.87711e-006 -6.9295e-005 9.1093 -0.5171 2.2601 3.32589 1.96545 3.76374 3.6764 0 -3.55271e-015 -20.6178 -0.723897 5.53125 2.8831 0 -7.10543e-015 -1.59028e-015 -3.24794e-006 -2.98177e-015 9.5334 7.10543e-015 3.55271e-015 -3.75619 -2.22193 4.3758 3.6982 7.10543e-015 7.10543e-015 -19.4585 -0.211623 4.69208 2.9509 0 0 -5.83712e-006 -7.45471e-006 -8.41955e-006 9.1045 -0.0439 -1.8651 -20.057 -6.85412 5.0904 3.154 0 -3.55271e-015 -20.6166 -0.306643 4.95696 2.9377 -1.77636e-015 0 6.46941e-006 1.47773e-006 5.84515e-006 8.0778 -0.4887 -3.8061 -32.6493 -5.79297 6.84376 3.6 2.22045e-016 0 -7.79791 0.548417 -0.159667 2.1142 3.55271e-015 0 2.60199e-007 -8.48365e-007 -2.96928e-006 -4.57 10.9462 -2.628 -17.4754 1.19019 16.0459 -10.5928 -0.5248 -2.2321 72.7037 -42.01 59.7283 -27.8415 1.42109e-014 0 -30.0827 12.0393 86.9699 -28.3288 0 0.0001 -34.4605 -11.2209 21.3884 -8.0767 -0.4885 -3.806 3.37149 -19.2282 -11.4566 -3.6 -1.42109e-014 0.0001 8.77036 1.07288 0.0657493 -2.1142 -1.42109e-014 1.42109e-014 5.66514e-007 5.92127e-006 4.20066e-006 -9.1036 -0.0439 -1.8651 0.29618 -13.8342 -6.96665 -3.154 -7.10543e-015 -3.55271e-015 14.9364 1.22228 -4.333 -2.9377 0 7.10543e-015 -5.1127e-006 -2.32136e-006 -1.61123e-006 -9.5325 0 3.55271e-015 -1.11372 -7.34695 -4.67212 -3.6982 -7.10543e-015 -3.55271e-015 13.3316 1.10687 -4.25835 -2.9509 0 -1.77636e-015 -4.23713e-006 -8.29741e-006 -0.00202146 -9.1083 -0.5168 2.2601 -7.19829 -1.99148 -4.97272 -3.6764 0 1.77636e-015 14.6205 0.421913 -4.88596 -2.8831 0 -1.24345e-014 -1.47171e-005 -4.97031e-006 9.04908e-007 -2.4648 -1.5727 2.6826 7.88779 -29.6202 -9.67531 -3.2298 -1.8647 1.8647 -4.85769 1.16274 -8.82446 -2.6526 -1.5314 1.5314 -0.00122482 -1.97835e-006 -0.00122399 8.2078 -6.7517 -1.5996 -8.76777 -23.3745 17.6584 3.33067e-016 -44.3705 0.2846 -0.105248 14.1876 0.0923863 3.33067e-016 -44.4279 -2.9822 4.11255 -1.33008 6.64189 0 -8.7287 10.7106 1.34205e-006 -6.99927e-005 8.3973e-007 -8.2078 -6.7517 -1.5996 -21.0884 -31.1917 -18.4695 3.55271e-015 -44.3705 0.2862 0.294585 24.2823 0.161589 3.55271e-015 -44.4277 -2.9838 2.07727 -0.296001 -4.73152 0 -8.7287 10.7106 8.78868e-005 -6.01316e-005 -8.59178e-006 
-2.50946 101.136 -9.76906 10.8841 7.36368 -14.8061 -1.77636e-015 10.1816 0.1315 2.31958 4.26967 -0.422531 -1.77636e-015 10.0835 -1.0008 6.30652 8.49633 -1.04666 3.55271e-015 9.1 -1.3734 6.31354 8.50444 -1.06625 7.10543e-015 16.6717 -2.5162 5.63256 -5.43062 2.99366 0 9.6179 1.685 -18.7992 -14.2771 6.42818 -1.77636e-015 17.8152 2.585 -7.95139e-016 1.59028e-015 -1.59028e-015 3.0676 6.4095 9.2836 -7.95139e-016 1.59028e-015 -1.59028e-015 -3.0676 6.4095 9.2835 -7.95139e-016 1.59028e-015 -1.59028e-015 4.5704 10.946 -2.628 25.0695 -2.75204 -23.2855 10.5924 -0.5246 -2.2321 -89.5705 21.8235 25.411 27.8415 -0.0001 0 -7.03245 -8.10658 -73.33 28.3288 0 0 4.93055 -8.53589 -4.43041 2.4661 -1.575 2.6824 -15.8838 -38.4232 13.4829 3.2298 -1.8647 1.8647 12.9946 0.285266 8.06574 2.6526 -1.5315 1.5315 -6.66399e-005 -6.87711e-006 -6.9295e-005 9.1093 -0.5171 2.2601 1.72708 1.06872 3.90005 3.6764 0 -3.55271e-015 -19.5528 -0.510858 5.40441 2.8831 -3.55271e-015 7.10543e-015 -1.59028e-015 -3.24794e-006 -1.78906e-015 9.5334 1.42109e-014 0 -4.57969 -3.29945 4.52511 3.6982 0 0 -19.6042 -0.0478953 4.76384 2.9509 3.55271e-015 0 -5.83712e-006 -7.45471e-006 -8.41955e-006 9.1045 -0.0439 -1.8651 -20.3319 -8.42304 5.05549 3.154 -3.55271e-015 0 -20.5502 -0.115787 4.99997 2.9377 7.10543e-015 -7.10543e-015 6.46941e-006 1.47773e-006 5.84515e-006 8.0778 -0.4887 -3.8061 -32.8446 -6.67235 6.59762 3.6 -1.77636e-015 -7.10543e-015 -7.80796 0.633079 -0.128087 2.1142 0 0 2.60199e-007 -8.48365e-007 -2.96928e-006 -4.57 10.9462 -2.628 -17.0021 1.33929 15.6404 -10.5928 -0.5248 -2.2321 68.7245 -40.411 56.4065 -27.8415 0 1.42109e-014 -30.0221 10.6827 86.3258 -28.3288 0 0.0001 -35.4452 -11.2563 26.2873 -8.0767 -0.4885 -3.806 3.37152 -19.2282 -11.4566 -3.6 0 0.0001 8.77035 1.07219 0.0657375 -2.1142 1.42109e-014 0 5.66514e-007 5.92127e-006 4.20066e-006 -9.1036 -0.0439 -1.8651 0.296204 -13.8342 -6.96666 -3.154 0 3.55271e-015 14.9364 1.22225 -4.33299 -2.9377 -1.42109e-014 -3.55271e-015 -5.1127e-006 -2.32136e-006 -1.61123e-006 -9.5325 0 -7.10543e-015 -1.11374 -7.34692 -4.67212 -3.6982 -7.10543e-015 -3.55271e-015 13.3315 1.10745 -4.259 -2.9509 0 -7.10543e-015 -4.23713e-006 -8.29741e-006 -0.00202146 -9.1083 -0.5168 2.2601 -7.19826 -1.99146 -4.97272 -3.6764 3.55271e-015 1.06581e-014 14.6204 0.421889 -4.88598 -2.8831 0 1.06581e-014 -1.47171e-005 -4.97031e-006 9.04908e-007 -2.4648 -1.5727 2.6826 7.8878 -29.6202 -9.67532 -3.2298 -1.8647 1.8647 -4.85768 1.16274 -8.82444 -2.6526 -1.5314 1.5314 -0.00122482 -1.97835e-006 -0.00122399 8.2078 -6.7517 -1.5996 -8.67279 -23.4009 17.7456 -6.66134e-016 -44.3705 0.2846 -0.101777 13.9507 0.0958022 -3.33067e-016 -44.4279 -2.9822 4.13591 -1.12548 6.49847 -4.44089e-016 -8.7287 10.7106 1.34205e-006 -6.99927e-005 8.3973e-007 -8.2078 -6.7517 -1.5996 -20.8839 -31.1702 -18.3372 3.55271e-015 -44.3705 0.2862 0.291754 23.9491 0.16062 0 -44.4277 -2.9838 2.06237 -0.0600266 -4.88224 3.55271e-015 -8.7287 10.7106 4.34387e-005 -2.61505e-005 -3.03527e-005 
